# Blender 4.0.2
# www.blender.org
o Cube.010
v -0.000000 0.395042 -0.064240
v -0.000000 0.641317 -0.062511
v 0.736534 0.395042 0.000000
v 0.715276 0.638431 0.000000
v -0.736534 0.395042 0.000000
v -0.603622 0.641317 0.000000
v -0.000000 0.395042 0.064240
v -0.000000 0.641317 0.062511
v -0.000000 3.335223 -0.037238
v 0.624603 3.335223 0.000000
v -0.546987 3.335223 0.000000
v -0.000000 3.335223 0.037238
v -0.000000 3.691818 -0.033292
v 0.544668 3.691818 0.000000
v -0.526934 3.691818 0.000000
v -0.000000 3.691818 0.033292
v -0.000000 4.061379 -0.030648
v 0.369860 4.061379 0.000000
v -0.501805 4.360793 0.000000
v -0.000000 4.061379 0.030648
v -0.000000 4.346655 -0.000000
v -0.000000 0.903836 0.059555
v -0.546987 0.903836 0.000000
v -0.000000 0.903836 -0.059555
v 0.703283 0.906722 -0.000000
vn 0.0870 0.0073 -0.9962
vn 0.0864 0.0074 -0.9962
vn 0.0870 0.0073 0.9962
vn 0.0864 0.0074 0.9962
vn -0.0941 0.0289 0.9951
vn -0.0998 0.0229 0.9947
vn -0.0986 0.0242 0.9948
vn -0.0941 0.0289 -0.9951
vn -0.0986 0.0242 -0.9948
vn -0.0998 0.0229 -0.9947
vn -0.0000 -1.0000 -0.0000
vn -0.0974 0.0112 0.9952
vn -0.0088 0.0087 0.9999
vn -0.0052 0.0075 1.0000
vn -0.0770 0.0059 0.9970
vn 0.0794 0.0066 -0.9968
vn -0.0088 0.0087 -0.9999
vn -0.0052 0.0075 -1.0000
vn 0.0670 0.0087 -0.9977
vn -0.0974 0.0112 -0.9952
vn -0.0770 0.0059 -0.9970
vn 0.0794 0.0066 0.9968
vn 0.0670 0.0087 0.9977
vn 0.0009 0.0109 -0.9999
vn 0.0639 0.0153 -0.9978
vn -0.0633 0.0057 -0.9980
vn 0.0639 0.0153 0.9978
vn 0.0009 0.0109 0.9999
vn -0.0633 0.0057 0.9980
vn -0.0403 0.0373 -0.9985
vn 0.0180 0.0506 -0.9986
vn 0.0728 0.0415 0.9965
vn 0.0180 0.0506 0.9986
vn -0.0403 0.0373 0.9985
vn 0.0728 0.0415 -0.9965
vn 0.0319 0.1068 0.9938
vn 0.0319 0.1068 -0.9938
vt 0.500000 0.011814
vt 0.500000 0.081373
vt 0.090228 0.081373
vt 0.000000 0.011814
vt 0.909772 0.081373
vt 1.000000 0.011814
vt 0.871324 0.155521
vt 0.500000 0.155521
vt 0.500000 0.658217
vt 0.871324 0.658217
vt 0.128675 0.155521
vt 0.128675 0.658217
vt 0.500000 0.758936
vt 0.158824 0.758936
vt 0.841175 0.758936
vt 0.699405 0.863317
vt 0.500000 0.863317
vt 0.300595 0.863317
vt 0.500000 0.943892
s 1
f 1/1/1 2/2/2 4/3/2 3/4/1
f 3/4/3 4/3/4 8/2/4 7/1/3
f 7/1/5 8/2/6 6/5/7 5/6/5
f 5/6/8 6/5/9 2/2/10 1/1/8
f 3/4/11 7/1/11 5/6/11 1/1/11
f 23/7/12 22/8/13 12/9/14 11/10/15
f 25/11/16 24/8/17 9/9/18 10/12/19
f 24/8/17 23/7/20 11/10/21 9/9/18
f 22/8/13 25/11/22 10/12/23 12/9/14
f 10/12/19 9/9/18 13/13/24 14/14/25
f 9/9/18 11/10/21 15/15/26 13/13/24
f 12/9/14 10/12/23 14/14/27 16/13/28
f 11/10/15 12/9/14 16/13/28 15/15/29
f 13/13/24 15/15/26 19/16/30 17/17/31
f 16/13/28 14/14/27 18/18/32 20/17/33
f 15/15/29 16/13/28 20/17/33 19/16/34
f 14/14/25 13/13/24 17/17/31 18/18/35
f 19/16/34 20/17/33 21/19/36
f 18/18/35 17/17/31 21/19/37
f 17/17/31 19/16/30 21/19/37
f 20/17/33 18/18/32 21/19/36
f 8/2/4 4/3/4 25/11/22 22/8/13
f 2/2/10 6/5/9 23/7/20 24/8/17
f 4/3/2 2/2/2 24/8/17 25/11/16
f 6/5/7 8/2/6 22/8/13 23/7/12
o Cube.011
v 0.000000 0.369742 0.125829
v 0.088974 0.369742 0.088974
v 0.125829 0.369742 0.000000
v 0.088974 0.369742 -0.088974
v 0.000000 0.369742 -0.125829
v -0.088974 0.369742 -0.088974
v -0.125829 0.369742 0.000000
v -0.088974 0.369742 0.088974
v 0.000000 0.262631 0.125829
v 0.088974 0.262631 0.088974
v 0.125829 0.262631 0.000000
v 0.088974 0.262631 -0.088974
v 0.000000 0.262631 -0.125829
v -0.088974 0.262631 -0.088974
v -0.125829 0.262631 0.000000
v -0.088974 0.262631 0.088974
v 0.000000 0.262631 0.108781
v 0.076920 0.262631 0.076920
v 0.108781 0.262631 0.000000
v 0.076920 0.262631 -0.076920
v 0.000000 0.262631 -0.108781
v -0.076920 0.262631 -0.076920
v -0.108781 0.262631 0.000000
v -0.076920 0.262631 0.076920
v 0.000000 -0.337046 0.108781
v 0.076920 -0.337046 0.076920
v 0.108781 -0.337046 0.000000
v 0.076920 -0.337046 -0.076920
v 0.000000 -0.337046 -0.108781
v -0.076920 -0.337046 -0.076920
v -0.108781 -0.337046 0.000000
v -0.076920 -0.337046 0.076920
v 0.000000 -0.355894 0.148245
v 0.104825 -0.355894 0.104825
v 0.148245 -0.355894 0.000000
v 0.104825 -0.355894 -0.104825
v 0.000000 -0.355894 -0.148245
v -0.104825 -0.355894 -0.104825
v -0.148245 -0.355894 0.000000
v -0.104825 -0.355894 0.104825
v 0.000000 -0.461444 0.148245
v 0.104825 -0.461444 0.104825
v 0.148245 -0.461444 0.000000
v 0.104825 -0.461444 -0.104825
v 0.000000 -0.461444 -0.148245
v -0.104825 -0.461444 -0.104825
v -0.148245 -0.461444 0.000000
v -0.104825 -0.461444 0.104825
v 0.000000 -0.494402 0.121456
v 0.085883 -0.494402 0.085883
v 0.121456 -0.494402 0.000000
v 0.085883 -0.494402 -0.085883
v 0.000000 -0.494402 -0.121456
v -0.085883 -0.494402 -0.085883
v -0.121456 -0.494402 0.000000
v -0.085883 -0.494402 0.085883
vn -0.0000 -0.0000 -1.0000
vn 0.7071 -0.0000 -0.7071
vn 1.0000 -0.0000 -0.0000
vn 0.7071 -0.0000 0.7071
vn -0.7071 -0.0000 0.7071
vn -1.0000 -0.0000 -0.0000
vn -0.7071 -0.0000 -0.7071
vn -0.0000 -0.0000 1.0000
vn -0.0000 -1.0000 -0.0000
vn -0.3047 0.9024 0.3047
vn -0.4310 0.9024 -0.0000
vn -0.3047 0.9024 -0.3047
vn -0.0000 0.9024 -0.4310
vn 0.3047 0.9024 -0.3047
vn 0.4310 0.9024 -0.0000
vn 0.3047 0.9024 0.3047
vn -0.0000 0.9024 0.4310
vn -0.6719 -0.3114 -0.6719
vn -0.9503 -0.3114 -0.0000
vn 0.6719 -0.3114 -0.6719
vn -0.0000 -0.3114 -0.9503
vn 0.6719 -0.3114 0.6719
vn 0.9503 -0.3114 -0.0000
vn -0.6719 -0.3114 0.6719
vn -0.0000 -0.3114 0.9503
vn -0.0000 -0.6307 0.7760
vn 0.5487 -0.6307 0.5487
vn -0.5487 -0.6307 0.5487
vn -0.5487 -0.6307 -0.5487
vn -0.7760 -0.6307 -0.0000
vn 0.5487 -0.6307 -0.5487
vn -0.0000 -0.6307 -0.7760
vn 0.7760 -0.6307 -0.0000
vt 0.105680 0.961663
vt 0.646479 0.977561
s 1
f 30/20/38 29/20/39 37/20/39 38/20/38
f 28/20/40 27/20/41 35/20/41 36/20/40
f 33/20/42 32/20/43 40/20/43 41/20/42
f 31/20/44 30/20/38 38/20/38 39/20/44
f 29/20/39 28/20/40 36/20/40 37/20/39
f 27/20/41 26/20/45 34/20/45 35/20/41
f 26/20/45 33/20/42 41/20/42 34/20/45
f 32/20/43 31/20/44 39/20/44 40/20/43
f 41/20/46 40/20/46 48/20/46 49/20/46
f 39/20/46 38/20/46 46/20/46 47/20/46
f 37/20/46 36/20/46 44/20/46 45/20/46
f 35/20/46 34/20/46 42/20/46 43/20/46
f 34/20/46 41/20/46 49/20/46 42/20/46
f 40/20/46 39/20/46 47/20/46 48/20/46
f 38/20/46 37/20/46 45/20/46 46/20/46
f 36/20/46 35/20/46 43/20/46 44/20/46
f 44/21/40 43/21/41 51/21/41 52/21/40
f 49/21/42 48/21/43 56/21/43 57/21/42
f 47/21/44 46/21/38 54/21/38 55/21/44
f 45/21/39 44/21/40 52/21/40 53/21/39
f 43/21/41 42/21/45 50/21/45 51/21/41
f 42/21/45 49/21/42 57/21/42 50/21/45
f 48/21/43 47/21/44 55/21/44 56/21/43
f 46/21/38 45/21/39 53/21/39 54/21/38
f 57/20/47 56/20/48 64/20/48 65/20/47
f 55/20/49 54/20/50 62/20/50 63/20/49
f 53/20/51 52/20/52 60/20/52 61/20/51
f 51/20/53 50/20/54 58/20/54 59/20/53
f 50/20/54 57/20/47 65/20/47 58/20/54
f 56/20/48 55/20/49 63/20/49 64/20/48
f 54/20/50 53/20/51 61/20/51 62/20/50
f 52/20/52 51/20/53 59/20/53 60/20/52
f 64/20/43 63/20/44 71/20/55 72/20/56
f 62/20/38 61/20/39 69/20/57 70/20/58
f 60/20/40 59/20/41 67/20/59 68/20/60
f 65/20/42 64/20/43 72/20/56 73/20/61
f 63/20/44 62/20/38 70/20/58 71/20/55
f 61/20/39 60/20/40 68/20/60 69/20/57
f 59/20/41 58/20/45 66/20/62 67/20/59
f 58/20/45 65/20/42 73/20/61 66/20/62
f 67/20/59 66/20/62 74/20/63 75/20/64
f 66/20/62 73/20/61 81/20/65 74/20/63
f 72/20/56 71/20/55 79/20/66 80/20/67
f 70/20/58 69/20/57 77/20/68 78/20/69
f 68/20/60 67/20/59 75/20/64 76/20/70
f 73/20/61 72/20/56 80/20/67 81/20/65
f 71/20/55 70/20/58 78/20/69 79/20/66
f 69/20/57 68/20/60 76/20/70 77/20/68
f 75/20/46 74/20/46 81/20/46 80/20/46 79/20/46 78/20/46 77/20/46 76/20/46
o Cube.013
v 0.000000 0.496834 0.000000
v -0.775890 0.439326 0.000000
v -0.910870 0.459313 0.000000
v -0.965092 0.497242 0.000000
v -0.971459 0.449933 0.000000
v -0.082024 0.456187 0.000000
v -0.223939 0.434300 0.000000
v -0.911101 0.379919 0.000000
v 0.000000 0.353005 0.000000
v 0.000000 0.353005 -0.128360
v -0.139560 0.353005 -0.128360
v -0.673921 0.353005 -0.070571
v -0.332881 0.363949 0.000000
v -0.635508 0.369421 0.000000
v 0.000000 0.487473 -0.128360
v -0.073593 0.452918 -0.125573
v -0.228287 0.430928 -0.104207
v -0.675850 0.430928 -0.064261
v -0.914625 0.454077 -0.027095
v -0.778203 0.434007 -0.047997
v -0.852913 0.368896 -0.035578
v 0.775890 0.439326 0.000000
v 0.910870 0.459313 0.000000
v 0.965092 0.497242 0.000000
v 0.971459 0.449933 0.000000
v 0.082024 0.456187 0.000000
v 0.223939 0.434300 0.000000
v 0.911101 0.379919 0.000000
v 0.139560 0.353005 -0.128360
v 0.673921 0.353005 -0.070571
v 0.332881 0.363949 0.000000
v 0.635508 0.369421 0.000000
v 0.073593 0.452918 -0.125573
v 0.228287 0.430928 -0.104207
v 0.675850 0.430928 -0.064261
v 0.914625 0.454077 -0.027095
v 0.778203 0.434007 -0.047997
v 0.852913 0.368896 -0.035578
v 0.000000 0.353005 0.128360
v -0.139560 0.353005 0.128360
v -0.673921 0.353005 0.070571
v 0.000000 0.487473 0.128360
v -0.073593 0.452918 0.125573
v -0.228287 0.430928 0.104207
v -0.675850 0.430928 0.064261
v -0.914625 0.454077 0.027095
v -0.778203 0.434007 0.047997
v -0.852913 0.368896 0.035578
v 0.139560 0.353005 0.128360
v 0.673921 0.353005 0.070571
v 0.073593 0.452918 0.125573
v 0.228287 0.430928 0.104207
v 0.675850 0.430928 0.064261
v 0.914625 0.454077 0.027095
v 0.778203 0.434007 0.047997
v 0.852913 0.368896 0.035578
vn -0.0000 -1.0000 -0.0000
vn -0.0018 -1.0000 -0.0000
vn -0.0190 -0.9989 0.0432
vn -0.0000 -0.9997 0.0252
vn -0.0112 -0.9999 -0.0000
vn -0.0217 -0.9790 0.2028
vn -0.2497 -0.0830 -0.9648
vn -0.1700 0.0318 -0.9849
vn -0.1385 0.0904 -0.9862
vn -0.1352 0.0940 -0.9863
vn -0.2904 0.9569 -0.0000
vn -0.4360 0.9000 -0.0000
vn -0.4352 0.8984 -0.0591
vn -0.3087 0.9500 -0.0470
vn -0.0755 0.9971 -0.0000
vn -0.0766 0.9959 -0.0491
vn -0.0978 0.0952 -0.9906
vn -0.0502 0.0444 -0.9978
vn -0.0000 0.0163 -0.9999
vn -0.1126 0.1339 -0.9846
vn 0.0701 0.9975 -0.0000
vn 0.0036 0.9972 -0.0741
vn 0.5732 0.8194 -0.0000
vn 0.3548 0.9350 -0.0000
vn 0.3209 0.9282 -0.1885
vn 0.0685 0.9893 -0.1285
vn -0.4561 -0.1037 -0.8838
vn -0.4331 0.0583 -0.8995
vn -0.4018 -0.1840 -0.8971
vn -0.0387 -0.9993 -0.0000
vn -0.0375 -0.9692 0.2435
vn -0.4677 -0.3229 -0.8228
vn 0.0190 -0.9989 0.0432
vn 0.0018 -1.0000 -0.0000
vn 0.0217 -0.9790 0.2028
vn 0.0112 -0.9999 -0.0000
vn 0.2497 -0.0830 -0.9648
vn 0.1352 0.0940 -0.9863
vn 0.1385 0.0904 -0.9862
vn 0.1700 0.0318 -0.9849
vn 0.2904 0.9569 -0.0000
vn 0.3087 0.9500 -0.0470
vn 0.4352 0.8984 -0.0591
vn 0.4360 0.9000 -0.0000
vn 0.0755 0.9971 -0.0000
vn 0.0766 0.9959 -0.0491
vn 0.0978 0.0952 -0.9906
vn 0.0502 0.0444 -0.9978
vn 0.1126 0.1339 -0.9846
vn -0.0701 0.9975 -0.0000
vn -0.0036 0.9972 -0.0741
vn -0.5732 0.8194 -0.0000
vn -0.3209 0.9282 -0.1885
vn -0.3548 0.9350 -0.0000
vn -0.0685 0.9893 -0.1285
vn 0.4561 -0.1037 -0.8838
vn 0.4018 -0.1840 -0.8971
vn 0.4331 0.0583 -0.8995
vn 0.0375 -0.9692 0.2435
vn 0.0387 -0.9993 -0.0000
vn 0.4677 -0.3229 -0.8228
vn -0.0000 -0.9997 -0.0252
vn -0.0190 -0.9989 -0.0432
vn -0.0217 -0.9790 -0.2028
vn -0.2497 -0.0830 0.9648
vn -0.1352 0.0940 0.9863
vn -0.1385 0.0904 0.9862
vn -0.1700 0.0318 0.9849
vn -0.3087 0.9500 0.0470
vn -0.4352 0.8984 0.0591
vn -0.0766 0.9959 0.0491
vn -0.0978 0.0952 0.9906
vn -0.0000 0.0163 0.9999
vn -0.0502 0.0444 0.9978
vn -0.1126 0.1339 0.9846
vn 0.0036 0.9972 0.0741
vn 0.3209 0.9282 0.1885
vn 0.0685 0.9893 0.1285
vn -0.4561 -0.1037 0.8838
vn -0.4018 -0.1840 0.8971
vn -0.4331 0.0583 0.8995
vn -0.0375 -0.9692 -0.2435
vn -0.4677 -0.3229 0.8228
vn 0.0190 -0.9989 -0.0432
vn 0.0217 -0.9790 -0.2028
vn 0.2497 -0.0830 0.9648
vn 0.1700 0.0318 0.9849
vn 0.1385 0.0904 0.9862
vn 0.1352 0.0940 0.9863
vn 0.4352 0.8984 0.0591
vn 0.3087 0.9500 0.0470
vn 0.0766 0.9959 0.0491
vn 0.0978 0.0952 0.9906
vn 0.0502 0.0444 0.9978
vn 0.1126 0.1339 0.9846
vn -0.0036 0.9972 0.0741
vn -0.3209 0.9282 0.1885
vn -0.0685 0.9893 0.1285
vn 0.4561 -0.1037 0.8838
vn 0.4331 0.0583 0.8995
vn 0.4018 -0.1840 0.8971
vn 0.0375 -0.9692 -0.2435
vn 0.4677 -0.3229 0.8228
vt 0.301163 0.966719
s 1
f 90/22/71 94/22/72 92/22/73 91/22/74
f 92/22/73 94/22/72 95/22/75 93/22/76
f 102/22/77 101/22/78 99/22/79 93/22/80
f 87/22/81 82/22/82 96/22/83 97/22/84
f 88/22/85 87/22/81 97/22/84 98/22/86
f 92/22/87 97/22/88 96/22/89 91/22/89
f 97/22/88 92/22/87 98/22/90
f 93/22/80 99/22/79 98/22/90 92/22/87
f 83/22/91 88/22/85 98/22/86 99/22/92
f 85/22/93 84/22/94 100/22/95
f 101/22/96 83/22/91 99/22/92
f 83/22/91 101/22/96 100/22/95 84/22/94
f 86/22/97 85/22/98 100/22/99
f 93/22/76 95/22/75 89/22/100 102/22/101
f 89/22/102 86/22/97 100/22/99 102/22/77
f 101/22/78 102/22/77 100/22/99
f 90/22/71 91/22/74 110/22/103 112/22/104
f 110/22/103 111/22/105 113/22/106 112/22/104
f 119/22/107 111/22/108 116/22/109 118/22/110
f 107/22/111 114/22/112 96/22/113 82/22/114
f 108/22/115 115/22/116 114/22/112 107/22/111
f 110/22/117 91/22/89 96/22/89 114/22/118
f 114/22/118 115/22/119 110/22/117
f 111/22/108 110/22/117 115/22/119 116/22/109
f 103/22/120 116/22/121 115/22/116 108/22/115
f 105/22/122 117/22/123 104/22/124
f 118/22/125 116/22/121 103/22/120
f 103/22/120 104/22/124 117/22/123 118/22/125
f 106/22/126 117/22/127 105/22/128
f 111/22/105 119/22/129 109/22/130 113/22/106
f 109/22/131 119/22/107 117/22/127 106/22/126
f 118/22/110 117/22/127 119/22/107
f 90/22/71 120/22/132 121/22/133 94/22/72
f 121/22/133 122/22/134 95/22/75 94/22/72
f 129/22/135 122/22/136 126/22/137 128/22/138
f 87/22/81 124/22/139 123/22/140 82/22/82
f 88/22/85 125/22/141 124/22/139 87/22/81
f 121/22/142 120/22/143 123/22/143 124/22/144
f 124/22/144 125/22/145 121/22/142
f 122/22/136 121/22/142 125/22/145 126/22/137
f 83/22/91 126/22/146 125/22/141 88/22/85
f 85/22/93 127/22/147 84/22/94
f 128/22/148 126/22/146 83/22/91
f 83/22/91 84/22/94 127/22/147 128/22/148
f 86/22/149 127/22/150 85/22/151
f 122/22/134 129/22/152 89/22/100 95/22/75
f 89/22/153 129/22/135 127/22/150 86/22/149
f 128/22/138 127/22/150 129/22/135
f 90/22/71 112/22/104 130/22/154 120/22/132
f 130/22/154 112/22/104 113/22/106 131/22/155
f 137/22/156 136/22/157 134/22/158 131/22/159
f 107/22/111 82/22/114 123/22/160 132/22/161
f 108/22/115 107/22/111 132/22/161 133/22/162
f 130/22/163 132/22/164 123/22/143 120/22/143
f 132/22/164 130/22/163 133/22/165
f 131/22/159 134/22/158 133/22/165 130/22/163
f 103/22/120 108/22/115 133/22/162 134/22/166
f 105/22/122 104/22/124 135/22/167
f 136/22/168 103/22/120 134/22/166
f 103/22/120 136/22/168 135/22/167 104/22/124
f 106/22/169 105/22/170 135/22/171
f 131/22/155 113/22/106 109/22/130 137/22/172
f 109/22/173 106/22/169 135/22/171 137/22/156
f 136/22/157 137/22/156 135/22/171
