# Blender 4.0.2
# www.blender.org
o Cube.017
v 0.009344 2.670868 -0.064240
v 0.009344 2.851578 -0.062511
v 0.366832 2.670868 0.000000
v 0.356514 2.849757 0.000000
v -0.348144 2.670868 0.000000
v -0.283633 2.851578 0.000000
v 0.009344 2.670868 0.064240
v 0.009344 2.851578 0.062511
v 0.009344 4.551066 -0.037238
v 0.312504 4.551066 0.000000
v -0.256144 4.551066 0.000000
v 0.009344 4.551066 0.037238
v 0.009344 4.776029 -0.033292
v 0.273706 4.776029 0.000000
v -0.246411 4.776029 0.000000
v 0.009344 4.776029 0.033292
v 0.009344 5.009172 -0.030648
v 0.188861 5.009172 0.000000
v -0.234215 5.198062 0.000000
v 0.009344 5.009172 0.030648
v -0.190948 5.526918 0.000000
v 0.009344 3.017192 0.059555
v -0.256144 3.017192 0.000000
v 0.009344 3.017192 -0.059555
v 0.350693 3.019012 -0.000000
v 0.009344 3.784129 0.048396
v 0.009344 3.784129 -0.048396
v -0.048416 3.784129 0.000000
v 0.331599 3.785039 -0.000000
v 0.009344 4.167598 0.042817
v 0.009344 4.167598 -0.042817
v -0.124319 4.307423 0.000000
v 0.322051 4.168053 -0.000000
v -0.124319 3.260835 0.000000
v 0.341146 3.402026 -0.000000
v 0.009344 3.400661 0.053976
v 0.009344 3.400661 -0.053976
vn 0.1771 0.0098 -0.9842
vn 0.1758 0.0108 -0.9844
vn 0.1758 0.0107 -0.9844
vn 0.1771 0.0098 0.9842
vn 0.1758 0.0107 0.9844
vn 0.1758 0.0108 0.9844
vn -0.1911 0.0388 0.9808
vn -0.2023 0.0326 0.9788
vn -0.2006 0.0335 0.9791
vn -0.1911 0.0388 -0.9808
vn -0.2006 0.0335 -0.9791
vn -0.2023 0.0326 -0.9788
vn -0.0000 -1.0000 -0.0000
vn -0.2083 -0.0351 0.9774
vn -0.1714 -0.0118 0.9851
vn -0.1650 -0.0078 0.9863
vn 0.1356 0.0089 -0.9907
vn 0.1355 0.0089 -0.9907
vn 0.1261 0.0141 -0.9919
vn 0.1263 0.0137 -0.9919
vn -0.2083 -0.0351 -0.9774
vn -0.1650 -0.0078 -0.9863
vn -0.1714 -0.0118 -0.9851
vn 0.1355 0.0089 0.9907
vn 0.1356 0.0089 0.9907
vn 0.1263 0.0137 0.9919
vn 0.1261 0.0141 0.9919
vn 0.1329 0.0254 -0.9908
vn 0.1312 0.0244 -0.9911
vn -0.1295 0.0090 -0.9915
vn -0.1294 0.0090 -0.9916
vn 0.1312 0.0244 0.9911
vn 0.1329 0.0254 0.9908
vn -0.1294 0.0090 0.9916
vn -0.1295 0.0090 0.9915
vn -0.1169 0.0123 -0.9931
vn -0.1225 0.0080 -0.9924
vn 0.1508 0.0617 0.9866
vn 0.1562 0.0817 0.9843
vn -0.1225 0.0080 0.9924
vn -0.1169 0.0123 0.9931
vn 0.1562 0.0817 -0.9843
vn 0.1508 0.0617 -0.9866
vn -0.1134 0.0149 0.9934
vn 0.1670 0.1225 -0.9783
vn -0.1134 0.0149 -0.9934
vn 0.1670 0.1225 0.9783
vn 0.1705 0.0105 0.9853
vn 0.1704 0.0105 0.9853
vn -0.2455 0.0435 -0.9684
vn -0.2548 0.0485 -0.9658
vn 0.1704 0.0105 -0.9853
vn 0.1705 0.0105 -0.9853
vn -0.2548 0.0485 0.9658
vn -0.2455 0.0435 0.9684
vn 0.1605 0.0092 0.9870
vn 0.1485 0.0090 0.9889
vn 0.1484 0.0090 0.9889
vn -0.4975 0.0470 -0.8662
vn -0.4738 0.0075 -0.8806
vn -0.4739 0.0077 -0.8805
vn 0.1605 0.0092 -0.9870
vn 0.1484 0.0090 -0.9889
vn 0.1485 0.0090 -0.9889
vn -0.4975 0.0470 0.8662
vn -0.4739 0.0077 0.8805
vn -0.4738 0.0075 0.8806
vn -0.4489 -0.0321 -0.8930
vn -0.4489 -0.0321 0.8930
vn -0.2957 0.0706 0.9527
vn -0.2957 0.0706 -0.9527
vt 0.500000 0.029284
vt 0.500000 0.085390
vt 0.985569 0.084825
vt 1.000000 0.029284
vt 0.090228 0.085390
vt 0.000000 0.029284
vt 0.313052 0.537400
vt 0.500000 0.493988
vt 0.500000 0.613047
vt 0.128676 0.613047
vt 0.937368 0.494129
vt 0.924015 0.613047
vt 0.500000 0.682893
vt 0.869751 0.682893
vt 0.142288 0.682893
vt 0.159347 0.813925
vt 0.500000 0.755279
vt 0.751082 0.755279
vt 0.219862 0.916029
vt 0.977427 0.137375
vt 0.500000 0.136810
vt 0.128676 0.136810
vt 0.500000 0.255869
vt 0.964074 0.256293
vt 0.950721 0.375211
vt 0.500000 0.374929
vt 0.313052 0.212456
vt 0.419214 0.374929
s 1
f 1/1/1 2/2/2 4/3/3 3/4/1
f 3/4/4 4/3/5 8/2/6 7/1/4
f 7/1/7 8/2/8 6/5/9 5/6/7
f 5/6/10 6/5/11 2/2/12 1/1/10
f 3/4/13 7/1/13 5/6/13 1/1/13
f 32/7/14 30/8/14 12/9/15 11/10/16
f 33/11/17 31/8/18 9/9/19 10/12/20
f 31/8/21 32/7/21 11/10/22 9/9/23
f 30/8/24 33/11/25 10/12/26 12/9/27
f 10/12/20 9/9/19 13/13/28 14/14/29
f 9/9/23 11/10/22 15/15/30 13/13/31
f 12/9/27 10/12/26 14/14/32 16/13/33
f 11/10/16 12/9/15 16/13/34 15/15/35
f 13/13/31 15/15/30 19/16/36 17/17/37
f 16/13/33 14/14/32 18/18/38 20/17/39
f 15/15/35 16/13/34 20/17/40 19/16/41
f 14/14/29 13/13/28 17/17/42 18/18/43
f 19/16/41 20/17/40 21/19/44
f 18/18/43 17/17/42 21/19/45
f 17/17/37 19/16/36 21/19/46
f 20/17/39 18/18/38 21/19/47
f 8/2/6 4/3/5 25/20/48 22/21/49
f 2/2/12 6/5/11 23/22/50 24/21/51
f 4/3/3 2/2/2 24/21/52 25/20/53
f 6/5/9 8/2/8 22/21/54 23/22/55
f 36/23/56 35/24/56 29/25/57 26/26/58
f 37/23/59 34/27/59 28/28/60 27/26/61
f 35/24/62 37/23/62 27/26/63 29/25/64
f 34/27/65 36/23/65 26/26/66 28/28/67
f 26/26/58 29/25/57 33/11/25 30/8/24
f 27/26/61 28/28/60 32/7/68 31/8/68
f 29/25/64 27/26/63 31/8/18 33/11/17
f 28/28/67 26/26/66 30/8/69 32/7/69
f 23/22/55 22/21/54 36/23/70 34/27/70
f 25/20/53 24/21/52 37/23/62 35/24/62
f 24/21/51 23/22/50 34/27/71 37/23/71
f 22/21/49 25/20/48 35/24/56 36/23/56
o Cube.015
v 0.000000 2.641858 0.125829
v 0.088974 2.641858 0.088974
v 0.125829 2.641858 0.000000
v 0.088974 2.641858 -0.088974
v 0.000000 2.641858 -0.125829
v -0.088974 2.641858 -0.088974
v -0.125829 2.641858 0.000000
v -0.088974 2.641858 0.088974
v 0.000000 0.632486 0.125829
v 0.088974 0.632486 0.088974
v 0.125829 0.632486 0.000000
v 0.088974 0.632486 -0.088974
v 0.000000 0.632486 -0.125829
v -0.088974 0.632486 -0.088974
v -0.125829 0.632486 0.000000
v -0.088974 0.632486 0.088974
v 0.000000 0.632486 0.108781
v 0.076920 0.632486 0.076920
v 0.108781 0.632486 0.000000
v 0.076920 0.632486 -0.076920
v 0.000000 0.632486 -0.108781
v -0.076920 0.632486 -0.076920
v -0.108781 0.632486 0.000000
v -0.076920 0.632486 0.076920
v 0.000000 -3.857494 0.128166
v 0.090627 -3.857494 0.090627
v 0.128166 -3.857494 0.000000
v 0.090627 -3.857494 -0.090627
v 0.000000 -3.857494 -0.128166
v -0.090627 -3.857494 -0.090627
v -0.128166 -3.857494 0.000000
v -0.090627 -3.857494 0.090627
v 0.000000 -3.879701 0.174662
v 0.123505 -3.879701 0.123505
v 0.174662 -3.879701 0.000000
v 0.123505 -3.879701 -0.123505
v 0.000000 -3.879701 -0.174662
v -0.123505 -3.879701 -0.123505
v -0.174662 -3.879701 0.000000
v -0.123505 -3.879701 0.123505
v 0.000000 -4.004060 0.174662
v 0.123505 -4.004060 0.123505
v 0.174662 -4.004060 0.000000
v 0.123505 -4.004060 -0.123505
v 0.000000 -4.004060 -0.174662
v -0.123505 -4.004060 -0.123505
v -0.174662 -4.004060 0.000000
v -0.123505 -4.004060 0.123505
v 0.000000 -4.042891 0.143100
v 0.101187 -4.042891 0.101187
v 0.143100 -4.042891 0.000000
v 0.101187 -4.042891 -0.101187
v 0.000000 -4.042891 -0.143100
v -0.101187 -4.042891 -0.101187
v -0.143100 -4.042891 0.000000
v -0.101187 -4.042891 0.101187
v 0.076920 -1.706073 0.076920
v 0.108781 -1.706073 0.000000
v -0.108781 -1.706073 0.000000
v -0.076920 -1.706073 0.076920
v 0.000000 -1.706073 -0.108781
v -0.076920 -1.706073 -0.076920
v 0.076920 -1.706073 -0.076920
v 0.000000 -1.706073 0.108781
v 0.000000 -1.707242 0.128166
v 0.090627 -1.707242 0.090627
v 0.128166 -1.707242 0.000000
v 0.090627 -1.707242 -0.090627
v 0.000000 -1.707242 -0.128166
v -0.090627 -1.707242 -0.090627
v -0.128166 -1.707242 0.000000
v -0.090627 -1.707242 0.090627
vn -0.0000 -0.0000 -1.0000
vn 0.7071 -0.0000 -0.7071
vn 1.0000 -0.0000 -0.0000
vn 0.7071 -0.0000 0.7071
vn -0.7071 -0.0000 0.7071
vn -1.0000 -0.0000 -0.0000
vn -0.7071 -0.0000 -0.7071
vn -0.0000 -0.0000 1.0000
vn -0.0000 -1.0000 -0.0000
vn -0.3047 0.9024 0.3047
vn -0.4310 0.9024 -0.0000
vn -0.3047 0.9024 -0.3047
vn -0.0000 0.9024 -0.4310
vn 0.3047 0.9024 -0.3047
vn 0.4310 0.9024 -0.0000
vn 0.3047 0.9024 0.3047
vn -0.0000 0.9024 0.4310
vn -0.6719 -0.3114 -0.6719
vn -0.9503 -0.3114 -0.0000
vn 0.6719 -0.3114 -0.6719
vn -0.0000 -0.3114 -0.9503
vn 0.6719 -0.3114 0.6719
vn 0.9503 -0.3114 -0.0000
vn -0.6719 -0.3114 0.6719
vn -0.0000 -0.3114 0.9503
vn -0.0000 -0.6307 0.7760
vn 0.5487 -0.6307 0.5487
vn -0.5487 -0.6307 0.5487
vn -0.5487 -0.6307 -0.5487
vn -0.7760 -0.6307 -0.0000
vn 0.5487 -0.6307 -0.5487
vn -0.0000 -0.6307 -0.7760
vn 0.7760 -0.6307 -0.0000
vn -0.0000 0.9982 -0.0602
vn -0.0425 0.9982 -0.0425
vn -0.0601 0.9982 -0.0000
vn -0.0425 0.9982 0.0425
vn -0.0000 0.9982 0.0602
vn 0.0425 0.9982 0.0425
vn 0.0601 0.9982 -0.0000
vn 0.0425 0.9982 -0.0425
vt 0.105680 0.961663
vt 0.646479 0.977561
vt 0.308537 0.972911
s 1
f 42/29/72 41/29/73 49/29/73 50/29/72
f 40/29/74 39/29/75 47/29/75 48/29/74
f 45/29/76 44/29/77 52/29/77 53/29/76
f 43/29/78 42/29/72 50/29/72 51/29/78
f 41/29/73 40/29/74 48/29/74 49/29/73
f 39/29/75 38/29/79 46/29/79 47/29/75
f 38/29/79 45/29/76 53/29/76 46/29/79
f 44/29/77 43/29/78 51/29/78 52/29/77
f 53/29/80 52/29/80 60/29/80 61/29/80
f 51/29/80 50/29/80 58/29/80 59/29/80
f 49/29/80 48/29/80 56/29/80 57/29/80
f 47/29/80 46/29/80 54/29/80 55/29/80
f 46/29/80 53/29/80 61/29/80 54/29/80
f 52/29/80 51/29/80 59/29/80 60/29/80
f 50/29/80 49/29/80 57/29/80 58/29/80
f 48/29/80 47/29/80 55/29/80 56/29/80
f 69/29/81 68/29/82 76/29/82 77/29/81
f 67/29/83 66/29/84 74/29/84 75/29/83
f 65/29/85 64/29/86 72/29/86 73/29/85
f 63/29/87 62/29/88 70/29/88 71/29/87
f 62/29/88 69/29/81 77/29/81 70/29/88
f 68/29/82 67/29/83 75/29/83 76/29/82
f 66/29/84 65/29/85 73/29/85 74/29/84
f 64/29/86 63/29/87 71/29/87 72/29/86
f 76/29/77 75/29/78 83/29/89 84/29/90
f 74/29/72 73/29/73 81/29/91 82/29/92
f 72/29/74 71/29/75 79/29/93 80/29/94
f 77/29/76 76/29/77 84/29/90 85/29/95
f 75/29/78 74/29/72 82/29/92 83/29/89
f 73/29/73 72/29/74 80/29/94 81/29/91
f 71/29/75 70/29/79 78/29/96 79/29/93
f 70/29/79 77/29/76 85/29/95 78/29/96
f 79/29/93 78/29/96 86/29/97 87/29/98
f 78/29/96 85/29/95 93/29/99 86/29/97
f 84/29/90 83/29/89 91/29/100 92/29/101
f 82/29/92 81/29/91 89/29/102 90/29/103
f 80/29/94 79/29/93 87/29/98 88/29/104
f 85/29/95 84/29/90 92/29/101 93/29/99
f 83/29/89 82/29/92 90/29/103 91/29/100
f 81/29/91 80/29/94 88/29/104 89/29/102
f 87/29/80 86/29/80 93/29/80 92/29/80 91/29/80 90/29/80 89/29/80 88/29/80
f 58/30/72 57/30/73 100/30/73 98/30/72
f 60/30/77 59/30/78 99/30/78 96/30/77
f 54/30/79 61/30/76 97/30/76 101/30/79
f 55/30/75 54/30/79 101/30/79 94/30/75
f 57/30/73 56/30/74 95/30/74 100/30/73
f 59/30/78 58/30/72 98/30/72 99/30/78
f 61/30/76 60/30/77 96/30/77 97/30/76
f 56/30/74 55/30/75 94/30/75 95/30/74
f 68/29/77 69/29/76 109/29/76 108/29/77
f 66/29/72 67/29/78 107/29/78 106/29/72
f 64/29/74 65/29/73 105/29/73 104/29/74
f 62/29/79 63/29/75 103/29/75 102/29/79
f 69/29/76 62/29/79 102/29/79 109/29/76
f 67/29/78 68/29/77 108/29/77 107/29/78
f 65/29/73 66/29/72 106/29/72 105/29/73
f 63/29/75 64/29/74 104/29/74 103/29/75
f 106/29/105 107/29/106 99/31/106 98/31/105
f 107/29/106 108/29/107 96/31/107 99/31/106
f 108/29/107 109/29/108 97/31/108 96/31/107
f 109/29/108 102/29/109 101/31/109 97/31/108
f 102/29/109 103/29/110 94/31/110 101/31/109
f 103/29/110 104/29/111 95/31/111 94/31/110
f 104/29/111 105/29/112 100/31/112 95/31/111
f 105/29/112 106/29/105 98/31/105 100/31/112
o Cube.014
v 0.000000 2.772659 0.000000
v -0.344793 2.715151 0.000000
v -0.404776 2.735139 0.000000
v -0.428871 2.773067 0.000000
v -0.431700 2.725759 0.000000
v -0.036450 2.732012 0.000000
v -0.099515 2.710125 0.000000
v -0.404878 2.655744 0.000000
v 0.000000 2.628831 0.000000
v 0.000000 2.628831 -0.128360
v -0.062018 2.628831 -0.128360
v -0.299480 2.628831 -0.070571
v -0.147927 2.639774 0.000000
v -0.282409 2.645246 0.000000
v 0.000000 2.763299 -0.128360
v -0.032703 2.728743 -0.125573
v -0.101447 2.706754 -0.104207
v -0.300337 2.706754 -0.064261
v -0.406444 2.729903 -0.027095
v -0.345821 2.709833 -0.047997
v -0.379021 2.644722 -0.035578
v 0.344793 2.715151 0.000000
v 0.404776 2.735139 0.000000
v 0.428871 2.773067 0.000000
v 0.431700 2.725759 0.000000
v 0.036450 2.732012 0.000000
v 0.099515 2.710125 0.000000
v 0.404878 2.655744 0.000000
v 0.062018 2.628831 -0.128360
v 0.299480 2.628831 -0.070571
v 0.147927 2.639774 0.000000
v 0.282409 2.645246 0.000000
v 0.032703 2.728743 -0.125573
v 0.101447 2.706754 -0.104207
v 0.300337 2.706754 -0.064261
v 0.406444 2.729903 -0.027095
v 0.345821 2.709833 -0.047997
v 0.379021 2.644722 -0.035578
v 0.000000 2.628831 0.128360
v -0.062018 2.628831 0.128360
v -0.299480 2.628831 0.070571
v 0.000000 2.763299 0.128360
v -0.032703 2.728743 0.125573
v -0.101447 2.706754 0.104207
v -0.300337 2.706754 0.064261
v -0.406444 2.729903 0.027095
v -0.345821 2.709833 0.047997
v -0.379021 2.644722 0.035578
v 0.062018 2.628831 0.128360
v 0.299480 2.628831 0.070571
v 0.032703 2.728743 0.125573
v 0.101447 2.706754 0.104207
v 0.300337 2.706754 0.064261
v 0.406444 2.729903 0.027095
v 0.345821 2.709833 0.047997
v 0.379021 2.644722 0.035578
vn -0.0000 -1.0000 -0.0000
vn -0.0115 -0.9999 -0.0000
vn -0.0370 -0.9978 0.0543
vn -0.0000 -0.9997 0.0252
vn -0.0330 -0.9995 -0.0000
vn -0.0354 -0.9816 0.1874
vn -0.3561 0.0223 -0.9342
vn -0.3556 0.0217 -0.9344
vn -0.2993 0.0875 -0.9502
vn -0.2894 0.0931 -0.9527
vn -0.5443 0.8389 -0.0000
vn -0.7369 0.6760 -0.0000
vn -0.7362 0.6753 -0.0444
vn -0.5723 0.8191 -0.0393
vn -0.1623 0.9867 -0.0000
vn -0.1821 0.9821 -0.0472
vn -0.1721 0.0834 -0.9815
vn -0.1178 0.0462 -0.9920
vn -0.0000 0.0163 -0.9999
vn -0.2618 0.1293 -0.9564
vn 0.1542 0.9880 -0.0000
vn 0.0098 0.9970 -0.0772
vn 0.8441 0.5362 -0.0000
vn 0.8340 0.5299 -0.1537
vn 0.1324 0.9833 -0.1247
vn 0.2895 0.9464 -0.1434
vn 0.2925 0.9563 -0.0000
vn -0.7581 -0.0972 -0.6449
vn -0.7341 0.0439 -0.6776
vn -0.7617 -0.1346 -0.6338
vn -0.0868 -0.9962 -0.0000
vn -0.0842 -0.9664 0.2428
vn -0.7657 -0.2349 -0.5987
vn -0.3295 -0.0121 -0.9441
vn 0.0370 -0.9978 0.0543
vn 0.0115 -0.9999 -0.0000
vn 0.0354 -0.9816 0.1874
vn 0.0330 -0.9995 -0.0000
vn 0.3561 0.0223 -0.9342
vn 0.2894 0.0931 -0.9527
vn 0.2993 0.0875 -0.9502
vn 0.3556 0.0217 -0.9344
vn 0.5443 0.8389 -0.0000
vn 0.5723 0.8191 -0.0393
vn 0.7362 0.6753 -0.0444
vn 0.7369 0.6760 -0.0000
vn 0.1623 0.9867 -0.0000
vn 0.1821 0.9821 -0.0472
vn 0.1721 0.0834 -0.9815
vn 0.1178 0.0462 -0.9920
vn 0.2618 0.1293 -0.9564
vn -0.1542 0.9880 -0.0000
vn -0.0098 0.9970 -0.0772
vn -0.8441 0.5362 -0.0000
vn -0.8340 0.5299 -0.1538
vn -0.1324 0.9833 -0.1247
vn -0.2925 0.9563 -0.0000
vn -0.2895 0.9464 -0.1434
vn 0.7581 -0.0972 -0.6449
vn 0.7617 -0.1346 -0.6338
vn 0.7341 0.0439 -0.6776
vn 0.0842 -0.9664 0.2428
vn 0.0868 -0.9962 -0.0000
vn 0.7657 -0.2349 -0.5987
vn 0.3295 -0.0121 -0.9441
vn -0.0000 -0.9997 -0.0252
vn -0.0370 -0.9978 -0.0543
vn -0.0354 -0.9816 -0.1874
vn -0.3561 0.0223 0.9342
vn -0.2894 0.0931 0.9527
vn -0.2993 0.0875 0.9501
vn -0.3556 0.0217 0.9344
vn -0.5723 0.8191 0.0393
vn -0.7362 0.6753 0.0444
vn -0.1821 0.9821 0.0472
vn -0.1721 0.0834 0.9815
vn -0.0000 0.0163 0.9999
vn -0.1178 0.0462 0.9920
vn -0.2618 0.1293 0.9564
vn 0.0098 0.9970 0.0772
vn 0.8340 0.5299 0.1537
vn 0.1324 0.9833 0.1247
vn 0.2895 0.9464 0.1434
vn -0.7581 -0.0972 0.6449
vn -0.7617 -0.1346 0.6338
vn -0.7341 0.0439 0.6776
vn -0.0842 -0.9664 -0.2428
vn -0.7657 -0.2349 0.5987
vn -0.3295 -0.0121 0.9441
vn 0.0370 -0.9978 -0.0543
vn 0.0354 -0.9816 -0.1874
vn 0.3561 0.0223 0.9342
vn 0.3556 0.0217 0.9344
vn 0.2993 0.0875 0.9501
vn 0.2894 0.0931 0.9527
vn 0.7362 0.6753 0.0444
vn 0.5723 0.8191 0.0393
vn 0.1821 0.9821 0.0472
vn 0.1721 0.0834 0.9815
vn 0.1178 0.0462 0.9920
vn 0.2618 0.1293 0.9564
vn -0.0098 0.9970 0.0772
vn -0.8340 0.5299 0.1538
vn -0.1324 0.9833 0.1247
vn -0.2895 0.9464 0.1434
vn 0.7581 -0.0972 0.6449
vn 0.7341 0.0439 0.6776
vn 0.7617 -0.1346 0.6338
vn 0.0842 -0.9664 -0.2428
vn 0.7657 -0.2349 0.5987
vn 0.3295 -0.0121 0.9441
vt 0.301163 0.966719
s 1
f 118/32/113 122/32/114 120/32/115 119/32/116
f 120/32/115 122/32/114 123/32/117 121/32/118
f 130/32/119 129/32/120 127/32/121 121/32/122
f 115/32/123 110/32/124 124/32/125 125/32/126
f 116/32/127 115/32/123 125/32/126 126/32/128
f 120/32/129 125/32/130 124/32/131 119/32/131
f 125/32/130 120/32/129 126/32/132
f 121/32/122 127/32/121 126/32/132 120/32/129
f 111/32/133 116/32/127 126/32/128 127/32/134
f 113/32/135 112/32/135 128/32/136
f 129/32/137 111/32/133 127/32/134
f 111/32/133 129/32/137 128/32/138 112/32/139
f 114/32/140 113/32/141 128/32/142
f 121/32/118 123/32/117 117/32/143 130/32/144
f 117/32/145 114/32/140 128/32/142 130/32/145
f 129/32/120 130/32/119 128/32/146
f 118/32/113 119/32/116 138/32/147 140/32/148
f 138/32/147 139/32/149 141/32/150 140/32/148
f 147/32/151 139/32/152 144/32/153 146/32/154
f 135/32/155 142/32/156 124/32/157 110/32/158
f 136/32/159 143/32/160 142/32/156 135/32/155
f 138/32/161 119/32/131 124/32/131 142/32/162
f 142/32/162 143/32/163 138/32/161
f 139/32/152 138/32/161 143/32/163 144/32/153
f 131/32/164 144/32/165 143/32/160 136/32/159
f 133/32/166 145/32/167 132/32/166
f 146/32/168 144/32/165 131/32/164
f 131/32/164 132/32/169 145/32/170 146/32/168
f 134/32/171 145/32/172 133/32/173
f 139/32/149 147/32/174 137/32/175 141/32/150
f 137/32/176 147/32/176 145/32/172 134/32/171
f 146/32/154 145/32/177 147/32/151
f 118/32/113 148/32/178 149/32/179 122/32/114
f 149/32/179 150/32/180 123/32/117 122/32/114
f 157/32/181 150/32/182 154/32/183 156/32/184
f 115/32/123 152/32/185 151/32/186 110/32/124
f 116/32/127 153/32/187 152/32/185 115/32/123
f 149/32/188 148/32/189 151/32/189 152/32/190
f 152/32/190 153/32/191 149/32/188
f 150/32/182 149/32/188 153/32/191 154/32/183
f 111/32/133 154/32/192 153/32/187 116/32/127
f 113/32/135 155/32/193 112/32/135
f 156/32/194 154/32/192 111/32/133
f 111/32/133 112/32/139 155/32/195 156/32/194
f 114/32/196 155/32/197 113/32/198
f 150/32/180 157/32/199 117/32/143 123/32/117
f 117/32/200 157/32/200 155/32/197 114/32/196
f 156/32/184 155/32/201 157/32/181
f 118/32/113 140/32/148 158/32/202 148/32/178
f 158/32/202 140/32/148 141/32/150 159/32/203
f 165/32/204 164/32/205 162/32/206 159/32/207
f 135/32/155 110/32/158 151/32/208 160/32/209
f 136/32/159 135/32/155 160/32/209 161/32/210
f 158/32/211 160/32/212 151/32/189 148/32/189
f 160/32/212 158/32/211 161/32/213
f 159/32/207 162/32/206 161/32/213 158/32/211
f 131/32/164 136/32/159 161/32/210 162/32/214
f 133/32/166 132/32/166 163/32/215
f 164/32/216 131/32/164 162/32/214
f 131/32/164 164/32/216 163/32/217 132/32/169
f 134/32/218 133/32/219 163/32/220
f 159/32/203 141/32/150 137/32/175 165/32/221
f 137/32/222 134/32/218 163/32/220 165/32/222
f 164/32/205 165/32/204 163/32/223
